<?xml version="1.0" encoding="UTF-8" standalone="no"?>
<svg width="20px" height="17px" viewBox="0 0 20 17" version="1.1" xmlns="http://www.w3.org/2000/svg" xmlns:xlink="http://www.w3.org/1999/xlink">
    <!-- Generator: Sketch 39.1 (31720) - http://www.bohemiancoding.com/sketch -->
    <title>dmail_sharing</title>
    <desc>Created with Sketch.</desc>
    <defs>
        <linearGradient x1="0%" y1="0.219391985%" x2="100%" y2="0.219391985%" id="linearGradient-1">
            <stop stop-color="#077C92" offset="0%"></stop>
            <stop stop-color="#101740" offset="100%"></stop>
        </linearGradient>
    </defs>
    <g id="160725" stroke="none" stroke-width="1" fill="none" fill-rule="evenodd">
        <g id="sharing-icons" transform="translate(-96.000000, -7.000000)">
            <g id="referral-sharing-kit">
                <g id="dmail_sharing" transform="translate(90.000000, 0.000000)">
                    <rect id="Rectangle-2-Copy-2" x="0" y="0" width="31" height="31" rx="1"></rect>
                    <path d="M26.0000238,12.781239 C25.665202,13.149543 25.2857373,13.4732041 24.8839511,13.7522223 C23.0201096,15.0133845 21.1451073,16.2857075 19.3259087,17.6026733 C18.3884076,18.2946384 17.227692,19.1428537 16.0111726,19.1428537 L16.0000119,19.1428537 L15.9888512,19.1428537 C14.7723319,19.1428537 13.6116162,18.2946384 12.6741151,17.6026733 C10.8549165,16.2745467 8.97991427,15.0133845 7.12723349,13.7522223 C6.71428657,13.4732041 6.33482183,13.149543 6,12.781239 L6,21.6428567 C6,22.6250007 6.80357239,23.4285731 7.78571641,23.4285731 L24.2143074,23.4285731 C25.1964515,23.4285731 26.0000238,22.6250007 26.0000238,21.6428567 L26.0000238,12.781239 Z M26.0000238,9.4999851 C26.0000238,8.51784107 25.1852907,7.71426868 24.2143074,7.71426868 L7.78571641,7.71426868 C6.59151856,7.71426868 6,8.6517698 6,9.74552111 C6,10.7611473 7.12723349,12.0223095 7.91964515,12.5580245 C9.64955792,13.763383 11.4017922,14.9687416 13.1317049,16.1852609 C13.8571522,16.6874937 15.0848323,17.7142806 15.9888512,17.7142806 L16.0000119,17.7142806 L16.0111726,17.7142806 C16.9151916,17.7142806 18.1428716,16.6874937 18.8683189,16.1852609 C20.5982317,14.9687416 22.3504659,13.763383 24.0915394,12.5580245 C25.0736835,11.8772201 26.0000238,10.7499866 26.0000238,9.4999851 L26.0000238,9.4999851 Z" id="" fill="url(#linearGradient-1)"></path>
                </g>
            </g>
        </g>
    </g>
</svg>