<?xml version="1.0" encoding="UTF-8" standalone="no"?>
<svg width="19px" height="19px" viewBox="0 0 19 19" version="1.1" xmlns="http://www.w3.org/2000/svg" xmlns:xlink="http://www.w3.org/1999/xlink">
    <!-- Generator: Sketch 39.1 (31720) - http://www.bohemiancoding.com/sketch -->
    <title>link_sharing</title>
    <desc>Created with Sketch.</desc>
    <defs>
        <linearGradient x1="0%" y1="0.219391985%" x2="100%" y2="0.219391985%" id="linearGradient-1">
            <stop stop-color="#077C92" offset="0%"></stop>
            <stop stop-color="#101740" offset="100%"></stop>
        </linearGradient>
    </defs>
    <g id="160725" stroke="none" stroke-width="1" fill="none" fill-rule="evenodd">
        <g id="sharing-icons" transform="translate(-141.000000, -6.000000)">
            <g id="referral-sharing-kit">
                <g id="link_sharing" transform="translate(135.000000, 0.000000)">
                    <rect id="Rectangle-2-Copy-3" x="0" y="0" width="31" height="31" rx="1"></rect>
                    <path d="M22.2500194,19.4285672 C22.2500194,19.7075854 22.1384121,19.9754428 21.937519,20.1763359 L20.296892,21.8058021 C20.0959989,21.9955345 19.8169808,22.0959811 19.5379626,22.0959811 C19.2589444,22.0959811 18.9799262,21.9955345 18.7790331,21.7946414 L16.4799232,19.4843708 C16.2790301,19.2834777 16.1674228,19.0044595 16.1674228,18.7254413 C16.1674228,18.3906195 16.3013516,18.1339228 16.5357268,17.9107082 C16.9040309,18.2790122 17.2165312,18.7142806 17.7857283,18.7142806 C18.3772469,18.7142806 18.8571582,18.2343693 18.8571582,17.6428508 C18.8571582,17.0736536 18.4218898,16.7611533 18.0535858,16.3928493 C18.2768003,16.158474 18.5334971,16.035706 18.8571582,16.035706 C19.1361764,16.035706 19.4151946,16.1473133 19.6160877,16.3482064 L21.937519,18.6696377 C22.1384121,18.8705308 22.2500194,19.1383883 22.2500194,19.4285672 L22.2500194,19.4285672 Z M14.4040279,11.5602542 C14.4040279,11.895076 14.2700991,12.1517728 14.0357239,12.3749873 C13.6674199,12.0066833 13.3549195,11.5714149 12.7857224,11.5714149 C12.1942038,11.5714149 11.7142925,12.0513262 11.7142925,12.6428448 C11.7142925,13.2120419 12.1495609,13.5245423 12.5178649,13.8928463 C12.2946504,14.1272216 12.0379536,14.2388288 11.7142925,14.2388288 C11.4352743,14.2388288 11.1562561,14.1383823 10.9553631,13.9374892 L8.63393171,11.6160579 C8.43303861,11.4151648 8.32143134,11.1473073 8.32143134,10.8571284 C8.32143134,10.5781102 8.43303861,10.3102527 8.63393171,10.1093596 L10.2745587,8.4798934 C10.4754518,8.29016104 10.75447,8.17855376 11.0334881,8.17855376 C11.3125063,8.17855376 11.5915245,8.29016104 11.7924176,8.49105413 L14.0915275,10.8013247 C14.2924206,11.0022178 14.4040279,11.281236 14.4040279,11.5602542 L14.4040279,11.5602542 Z M24.3928791,19.4285672 C24.3928791,18.5691911 24.069218,17.7656188 23.455378,17.1517787 L21.1339466,14.8303474 C20.5312673,14.2276681 19.7053735,13.8928463 18.8571582,13.8928463 C17.9754607,13.8928463 17.1495669,14.2499896 16.5357268,14.8749903 L15.5535828,13.8928463 C16.1785836,13.2790063 16.5357268,12.4419517 16.5357268,11.5602542 C16.5357268,10.7120389 16.2120657,9.89730581 15.6093865,9.29462652 L13.3102766,6.98435591 C12.7075973,6.37051589 11.8928642,6.03569406 11.0334881,6.03569406 C10.1852728,6.03569406 9.37053973,6.35935516 8.76786044,6.96203445 L7.12723349,8.59150068 C6.5245542,9.18301924 6.17857164,10.0089131 6.17857164,10.8571284 C6.17857164,11.7165044 6.50223274,12.5200768 7.11607276,13.1339168 L9.4375041,15.4553481 C10.0401834,16.0580274 10.8660772,16.3928493 11.7142925,16.3928493 C12.59599,16.3928493 13.4218838,16.035706 14.0357239,15.4107052 L15.0178679,16.3928493 C14.3928671,17.0066893 14.0357239,17.8437439 14.0357239,18.7254413 C14.0357239,19.5736566 14.359385,20.3883897 14.9620643,20.991069 L17.2611741,23.3013396 C17.8638534,23.9151797 18.6785865,24.2500015 19.5379626,24.2500015 C20.3861779,24.2500015 21.200911,23.9263404 21.8035903,23.3236611 L23.4442172,21.6941949 C24.0468965,21.1026763 24.3928791,20.2767825 24.3928791,19.4285672 L24.3928791,19.4285672 Z" id="ïƒ" fill="url(#linearGradient-1)"></path>
                </g>
            </g>
        </g>
    </g>
</svg>